# xmcd CD database file
#
# Track frame offsets:
#	150
#	16675
#	37445
#	62699
#	76589
#	99397
#	117813
#	140085
#	161111
#	174970
#	196911
#	218508
#	233574
#
# Disc length: 3438 seconds
#
# Revision: 0
# Processed by: cddbd v1.5.2PL0 Copyright (c) Steve Scherf et al.
# Submitted via: jetAudio 7
#
DISCID=a00d6c0d
DTITLE=Cris Williamson - Fringe
DYEAR=1900
DGENRE=Adult Contemporary
TTITLE0=Alazan
TTITLE1=High Lonesome
TTITLE2=Fringe
TTITLE3=Lopin' Along Thru the Cosmos
TTITLE4=Big Seed Catalog
TTITLE5=Little Cowboy Lullaby
TTITLE6=Murder of Crows
TTITLE7=Glass of Rose
TTITLE8=Get Along Little Dogies (traditional)
TTITLE9=Tumbleweed
TTITLE10=One Wing Through the Wall
TTITLE11=Goodbye Old Paint (traditional)
TTITLE12=The Women Are Singing Tonight
EXTD=
EXTT0=
EXTT1=
EXTT2=
EXTT3=
EXTT4=
EXTT5=
EXTT6=
EXTT7=
EXTT8=
EXTT9=
EXTT10=
EXTT11=
EXTT12=
PLAYORDER=
